<svg width="248" height="42" viewBox="0 0 248 42" fill="none" xmlns="http://www.w3.org/2000/svg">
<path d="M96.0768 20.0134C96.8938 20.0134 97.5251 20.2368 97.9707 20.6836C98.4411 21.1303 98.6763 21.7508 98.6763 22.545C98.6763 22.7435 98.6515 22.9545 98.602 23.1779C98.5772 23.3764 98.5401 23.5502 98.4906 23.6991C98.1688 23.6494 97.8098 23.6122 97.4137 23.5874C97.0176 23.5377 96.5472 23.5129 96.0026 23.5129C94.938 23.5129 93.8611 23.6122 92.7718 23.8108C91.6825 23.9845 90.6427 24.1334 89.6525 24.2575C89.0831 25.5729 88.5632 26.8511 88.0928 28.092C87.6224 29.3082 87.2139 30.425 86.8673 31.4426C86.5455 32.4602 86.2856 33.3413 86.0875 34.0858C85.9142 34.8304 85.8152 35.3888 85.7904 35.7611C87.7957 35.3392 89.8134 34.9793 91.8434 34.6815C93.8982 34.3837 96.0521 34.1603 98.3049 34.0114C98.5772 34.4333 98.8001 34.8924 98.9734 35.3888C99.1714 35.8852 99.2704 36.4188 99.2704 36.9897C99.2704 37.1386 99.2704 37.2999 99.2704 37.4736C99.2704 37.6474 99.2457 37.8211 99.1962 37.9948C98.503 37.97 97.7727 37.9452 97.0052 37.9204C96.2377 37.9204 95.2351 37.9204 93.9973 37.9204C93.1803 37.9204 92.4005 37.9328 91.6578 37.9576C90.9398 38.0072 90.2095 38.0693 89.4668 38.1437C88.7241 38.2182 87.9319 38.3175 87.0901 38.4416C86.2732 38.5657 85.3448 38.7146 84.305 38.8883C83.1662 38.4416 82.0645 37.3495 81 35.6122C81.4209 34.7187 82.0026 33.3661 82.7453 31.5543C83.5128 29.7177 84.4783 27.273 85.6419 24.2203C84.5278 23.8728 83.7975 23.2523 83.4509 22.3588C83.5747 22.2347 83.9337 22.0858 84.5278 21.9121C85.122 21.7135 85.8523 21.515 86.7188 21.3164C87.0901 20.3485 87.3996 19.5047 87.6472 18.7849C87.9195 18.0651 88.1547 17.395 88.3527 16.7746C88.5508 16.1293 88.7241 15.5088 88.8726 14.9131C89.0459 14.2927 89.2068 13.6225 89.3554 12.9028C88.4889 12.8532 87.8081 12.6174 87.313 12.1954C86.8178 11.7487 86.5703 11.1779 86.5703 10.4829C86.5703 10.2844 86.595 10.0486 86.6445 9.77559C86.7188 9.50259 86.7931 9.2668 86.8673 9.06825C87.3625 9.14271 87.8328 9.19235 88.2785 9.21717C88.7488 9.24198 89.3554 9.25439 90.0981 9.25439C91.6578 9.25439 93.1184 9.21717 94.48 9.14271C95.8416 9.04343 97.0671 8.94416 98.1564 8.84488C99.2704 8.7456 100.224 8.65874 101.016 8.58428C101.808 8.485 102.415 8.43537 102.835 8.43537C103.405 8.43537 103.912 8.73319 104.358 9.32885C104.804 9.92451 105.138 10.7684 105.361 11.8604C104.593 11.7859 103.962 11.7363 103.467 11.7115C102.996 11.6867 102.575 11.6742 102.204 11.6742C100.842 11.6742 99.5923 11.7487 98.4535 11.8976C97.3394 12.0217 96.2625 12.1582 95.2227 12.3071C95.0742 12.5305 94.9009 12.8159 94.7028 13.1634C94.5295 13.5109 94.2943 13.9948 93.9973 14.6153C93.7002 15.2358 93.3288 16.0176 92.8832 16.9607C92.4623 17.9038 91.9425 19.0827 91.3235 20.4974C92.2643 20.3485 93.1432 20.2368 93.9601 20.1624C94.8019 20.0631 95.5074 20.0134 96.0768 20.0134ZM100.533 3C101.053 3.14891 101.536 3.47156 101.981 3.96794C102.452 4.46432 102.687 4.93588 102.687 5.38262C101.746 5.77973 100.917 6.11479 100.199 6.3878C99.5056 6.63599 98.8743 6.84695 98.3049 7.02068C97.7603 7.1696 97.2775 7.28128 96.8567 7.35574C96.4358 7.40538 96.0273 7.43019 95.6312 7.43019C94.839 7.43019 94.1582 7.19441 93.5888 6.72285C94.7028 6.47466 95.8788 6.02792 97.1166 5.38262C98.3544 4.71251 99.4932 3.9183 100.533 3Z" fill="white"/>
<path d="M105.085 21.6143C104.961 21.4654 104.85 21.1551 104.751 20.6836C104.652 20.1872 104.603 19.7653 104.603 19.4178C105.246 19.4674 105.865 19.5171 106.459 19.5667C107.053 19.5915 107.598 19.6163 108.093 19.6412C108.465 18.8966 108.861 18.1644 109.282 17.4447C109.727 16.7001 110.148 16.03 110.544 15.4343C110.965 14.8139 111.349 14.2927 111.695 13.8707C112.067 13.4488 112.351 13.1758 112.549 13.0517C112.797 13.0517 113.106 13.1013 113.478 13.2006C113.874 13.2751 114.27 13.3868 114.666 13.5357C115.062 13.6598 115.421 13.7963 115.743 13.9452C116.065 14.0941 116.288 14.243 116.411 14.3919C115.669 15.3351 115.025 16.2161 114.48 17.0352C113.961 17.8294 113.391 18.7477 112.772 19.7901C113.267 19.7901 113.762 19.7777 114.258 19.7528C114.777 19.728 115.297 19.6908 115.817 19.6412C115.941 19.7653 116.04 19.9266 116.114 20.1251C116.189 20.2989 116.226 20.485 116.226 20.6836C115.013 21.1303 113.54 21.3785 111.807 21.4281C111.188 22.6194 110.631 23.8108 110.136 25.0021C109.665 26.1686 109.257 27.2978 108.91 28.3899C108.588 29.4819 108.328 30.5119 108.13 31.4798C107.957 32.4478 107.87 33.3164 107.87 34.0858C107.87 35.1779 108.279 35.7859 109.096 35.91C109.839 35.8108 110.544 35.6246 111.213 35.3516C111.881 35.0786 112.475 34.7311 112.995 34.3092C113.144 34.5326 113.23 34.7187 113.255 34.8676C113.106 35.091 112.846 35.3516 112.475 35.6494C112.129 35.9473 111.745 36.2327 111.324 36.5057C110.903 36.8035 110.495 37.0517 110.098 37.2503C109.702 37.4488 109.405 37.5605 109.207 37.5853C108.588 37.5605 107.969 37.424 107.35 37.1758C106.732 36.9276 106.162 36.6174 105.642 36.2451C105.147 35.8728 104.739 35.4633 104.417 35.0165C104.095 34.545 103.934 34.0858 103.934 33.6391C103.934 33.0434 104.008 32.2989 104.157 31.4054C104.33 30.4871 104.565 29.4943 104.862 28.4271C105.16 27.3599 105.506 26.243 105.902 25.0765C106.298 23.91 106.732 22.7559 107.202 21.6143H105.085Z" fill="white"/>
<path d="M129.244 20.4602C129.145 21.999 128.873 23.3268 128.427 24.4436C127.981 25.5357 127.338 26.5036 126.496 27.3475C125.679 28.1665 124.676 28.9111 123.488 29.5812C122.3 30.2513 120.913 30.8966 119.329 31.5171C119.329 31.666 119.316 31.8273 119.292 32.001C119.292 32.1499 119.292 32.3113 119.292 32.485C119.292 32.8077 119.316 33.1427 119.366 33.4902C119.416 33.8376 119.502 34.1603 119.626 34.4581C119.75 34.7559 119.923 35.0041 120.146 35.2027C120.369 35.3764 120.653 35.4633 121 35.4633C121.668 35.4633 122.324 35.3144 122.968 35.0165C123.612 34.7187 124.218 34.3588 124.788 33.9369C125.382 33.4902 125.927 33.0186 126.422 32.5222C126.942 32.001 127.4 31.5295 127.796 31.1075C128.043 31.3309 128.254 31.5419 128.427 31.7404C127.313 33.2296 126.087 34.4705 124.751 35.4633C123.438 36.4312 122.188 37.0517 121 37.3247C119.292 37.1262 117.955 36.5057 116.989 35.4633C116.049 34.3961 115.578 33.1179 115.578 31.6287C115.578 30.6112 115.714 29.5812 115.987 28.5388C116.284 27.4716 116.68 26.454 117.175 25.486C117.695 24.4933 118.289 23.5626 118.958 22.6939C119.651 21.8252 120.381 21.0683 121.148 20.423C121.941 19.7777 122.745 19.2689 123.562 18.8966C124.404 18.5243 125.233 18.3382 126.05 18.3382C127.189 18.4871 128.254 19.1944 129.244 20.4602ZM126.682 21.6887C126.013 21.788 125.32 22.061 124.602 22.5078C123.884 22.9545 123.203 23.5502 122.56 24.2947C121.941 25.0393 121.371 25.908 120.851 26.9007C120.332 27.8935 119.923 28.9607 119.626 30.1024C121.606 29.1096 123.253 27.8935 124.565 26.454C125.877 24.9897 126.583 23.4012 126.682 21.6887Z" fill="white"/>
<path d="M130.072 35.1282C130.196 34.4085 130.406 33.4654 130.703 32.2989C131.025 31.1075 131.396 29.8542 131.817 28.5388C132.238 27.1986 132.684 25.8583 133.154 24.5181C133.624 23.1779 134.082 21.9741 134.528 20.9069C134.85 20.1375 135.135 19.5419 135.382 19.12C135.63 18.6732 135.902 18.3009 136.199 18.0031C136.546 18.0527 136.905 18.1396 137.276 18.2637C137.647 18.3878 138.006 18.5367 138.353 18.7104C138.7 18.8842 139.009 19.0703 139.281 19.2689C139.554 19.4426 139.764 19.6163 139.913 19.7901C139.244 20.5843 138.65 21.4902 138.13 22.5078C137.635 23.5253 137.128 24.8283 136.608 26.4168C137.945 25.2254 139.12 24.0838 140.136 22.9917C141.175 21.8997 142.141 20.6836 143.032 19.3433C143.181 19.2192 143.441 19.1572 143.812 19.1572C144.158 19.1572 144.493 19.2192 144.815 19.3433C145.136 19.4426 145.359 19.5915 145.483 19.7901C145.037 20.9814 144.815 22.1603 144.815 23.3268C144.815 24.4188 144.975 25.2378 145.297 25.7839C145.273 25.9328 145.099 26.2182 144.777 26.6401C144.48 27.062 144.146 27.4592 143.775 27.8314C143.106 27.484 142.512 27.0124 141.992 26.4168C141.472 25.7963 141.089 25.1262 140.841 24.4064C139.678 25.2254 138.687 26.0321 137.87 26.8263C137.053 27.5957 136.348 28.4643 135.754 29.4323C135.184 30.3754 134.689 31.4674 134.268 32.7084C133.872 33.9493 133.488 35.4261 133.117 37.1386C132.894 37.1138 132.622 37.0269 132.3 36.878C132.003 36.7539 131.693 36.5926 131.372 36.394C131.075 36.1954 130.802 35.9845 130.555 35.7611C130.307 35.5377 130.146 35.3268 130.072 35.1282Z" fill="white"/>
<path d="M158.278 13.3123C157.288 13.3123 156.52 13.0393 155.976 12.4933C155.456 11.9224 155.196 11.2399 155.196 10.4457C155.196 10.2472 155.221 10.0114 155.27 9.73837C155.344 9.46535 155.431 9.22957 155.53 9.03102C155.852 9.17994 156.322 9.29162 156.941 9.36608C157.585 9.41572 158.328 9.44054 159.169 9.44054C160.432 9.44054 161.855 9.3909 163.44 9.29162C165.049 9.16753 166.584 9.04343 168.045 8.91934C169.505 8.79524 170.793 8.68356 171.907 8.58428C173.021 8.46019 173.739 8.39814 174.06 8.39814C174.976 8.39814 175.632 8.7456 176.029 9.44054C176.449 10.1107 176.759 11.0165 176.957 12.1582C176.313 12.1086 175.67 12.0714 175.026 12.0465C174.407 11.9969 173.875 11.9721 173.429 11.9721C172.637 11.9721 171.832 11.9969 171.015 12.0465C170.223 12.0962 169.419 12.1706 168.602 12.2699C168.255 12.9897 167.871 13.8459 167.45 14.8387C167.029 15.8066 166.609 16.8242 166.188 17.8914C165.792 18.9586 165.408 20.0259 165.037 21.0931C164.665 22.1355 164.343 23.0786 164.071 23.9224C163.526 25.5605 163.044 27.0745 162.623 28.4643C162.227 29.8542 161.868 31.1572 161.546 32.3733C161.249 33.5646 160.989 34.7063 160.766 35.7983C160.543 36.8904 160.345 37.9576 160.172 39C158.513 38.7518 157.127 37.7094 156.013 35.8728C156.211 35.1034 156.446 34.272 156.718 33.3785C157.015 32.4602 157.35 31.4302 157.721 30.2885C158.117 29.122 158.575 27.8066 159.095 26.3423C159.615 24.878 160.209 23.2151 160.877 21.3537C161.125 20.6587 161.385 19.939 161.657 19.1944C161.93 18.425 162.19 17.668 162.437 16.9235C162.709 16.1789 162.945 15.4592 163.143 14.7642C163.365 14.0693 163.551 13.4364 163.7 12.8656C162.66 12.9897 161.67 13.1013 160.729 13.2006C159.813 13.2751 158.996 13.3123 158.278 13.3123Z" fill="white"/>
<path d="M168.09 35.1282C168.214 34.4085 168.425 33.4654 168.722 32.2989C169.043 31.1075 169.415 29.8542 169.836 28.5388C170.257 27.1986 170.702 25.8583 171.173 24.5181C171.643 23.1779 172.101 21.9741 172.547 20.9069C172.868 20.1375 173.153 19.5419 173.401 19.12C173.648 18.6732 173.921 18.3009 174.218 18.0031C174.564 18.0527 174.923 18.1396 175.295 18.2637C175.666 18.3878 176.025 18.5367 176.371 18.7104C176.718 18.8842 177.028 19.0703 177.3 19.2689C177.572 19.4426 177.783 19.6163 177.931 19.7901C177.263 20.5843 176.669 21.4902 176.149 22.5078C175.654 23.5253 175.146 24.8283 174.626 26.4168C175.963 25.2254 177.139 24.0838 178.154 22.9917C179.194 21.8997 180.159 20.6836 181.05 19.3433C181.199 19.2192 181.459 19.1572 181.83 19.1572C182.177 19.1572 182.511 19.2192 182.833 19.3433C183.155 19.4426 183.378 19.5915 183.501 19.7901C183.056 20.9814 182.833 22.1603 182.833 23.3268C182.833 24.4188 182.994 25.2378 183.316 25.7839C183.291 25.9328 183.118 26.2182 182.796 26.6401C182.499 27.062 182.165 27.4592 181.793 27.8314C181.125 27.484 180.531 27.0124 180.011 26.4168C179.491 25.7963 179.107 25.1262 178.86 24.4064C177.696 25.2254 176.706 26.0321 175.889 26.8263C175.072 27.5957 174.366 28.4643 173.772 29.4323C173.203 30.3754 172.707 31.4674 172.287 32.7084C171.89 33.9493 171.507 35.4261 171.135 37.1386C170.913 37.1138 170.64 37.0269 170.318 36.878C170.021 36.7539 169.712 36.5926 169.39 36.394C169.093 36.1954 168.821 35.9845 168.573 35.7611C168.326 35.5377 168.165 35.3268 168.09 35.1282Z" fill="white"/>
<path d="M196.77 20.8325C197.018 20.8325 197.303 20.8821 197.625 20.9814C197.971 21.0558 198.281 21.1675 198.553 21.3164C198.825 21.4405 199.048 21.577 199.221 21.726C199.419 21.8749 199.518 22.0114 199.518 22.1355C199.023 23.1779 198.565 24.2327 198.144 25.2999C197.724 26.3423 197.365 27.3475 197.068 28.3154C196.77 29.2833 196.535 30.1892 196.362 31.0331C196.213 31.8769 196.139 32.6091 196.139 33.2296C196.139 33.9245 196.213 34.5078 196.362 34.9793C196.511 35.4261 196.758 35.7487 197.105 35.9473C196.808 36.1458 196.424 36.3071 195.954 36.4312C195.483 36.5553 195.062 36.6174 194.691 36.6174C193.354 36.6174 192.686 35.6991 192.686 33.8625C192.686 32.4478 193.156 30.5119 194.097 28.0548C193.602 29.1965 193.032 30.2761 192.389 31.2937C191.745 32.2865 191.089 33.1675 190.42 33.9369C189.752 34.7063 189.071 35.3392 188.378 35.8356C187.71 36.3071 187.091 36.5926 186.521 36.6918C185.605 36.6422 184.863 36.2079 184.293 35.3888C183.724 34.545 183.439 33.4778 183.439 32.1872C183.439 30.7973 183.736 29.333 184.33 27.7942C184.924 26.2554 185.679 24.8283 186.595 23.5129C187.536 22.1975 188.551 21.1055 189.641 20.2368C190.73 19.3433 191.782 18.8718 192.797 18.8221C193.045 18.8966 193.317 19.0455 193.614 19.2689C193.936 19.4922 194.233 19.7528 194.505 20.0507C194.802 20.3485 195.05 20.6587 195.248 20.9814C195.446 21.2792 195.557 21.5398 195.582 21.7632C194.592 21.9121 193.564 22.3961 192.5 23.2151C191.46 24.0341 190.507 25.0269 189.641 26.1934C188.799 27.3351 188.106 28.5636 187.561 29.879C187.016 31.1944 186.744 32.423 186.744 33.5646C186.744 34.0362 186.917 34.334 187.264 34.4581C187.982 34.3092 188.811 33.7011 189.752 32.6339C190.693 31.5419 191.832 29.8666 193.168 27.6081C193.416 27.1613 193.688 26.6649 193.985 26.1189C194.307 25.5729 194.629 25.0021 194.951 24.4064C195.273 23.8108 195.582 23.2151 195.879 22.6194C196.201 21.999 196.498 21.4033 196.77 20.8325Z" fill="white"/>
<path d="M203.009 22.6939C203.009 22.2472 203.034 21.8252 203.084 21.4281C203.158 21.031 203.294 20.696 203.492 20.423C203.69 20.1251 203.963 19.9018 204.309 19.7528C204.656 19.5791 205.114 19.4922 205.683 19.4922C206.03 19.4922 206.414 19.5295 206.834 19.6039C207.28 19.6784 207.602 19.8149 207.8 20.0134C207.701 20.4354 207.614 20.8077 207.54 21.1303C207.49 21.4529 207.441 21.8128 207.391 22.2099C207.367 22.5822 207.342 23.0414 207.317 23.5874C207.292 24.1086 207.268 24.7911 207.243 25.635C207.193 27.3226 207.107 28.8366 206.983 30.1768C206.884 31.4922 206.636 32.8077 206.24 34.1231C206.24 34.2223 206.277 34.272 206.352 34.272C206.723 33.999 207.144 33.6019 207.614 33.0807C208.085 32.5595 208.58 31.9762 209.1 31.3309C209.619 30.6608 210.139 29.9535 210.659 29.2089C211.179 28.4643 211.662 27.7322 212.108 27.0124C212.702 25.97 213.358 24.667 214.076 23.1034C214.794 21.5398 215.388 19.8645 215.858 18.0776C216.007 18.0776 216.192 18.1148 216.415 18.1892C216.663 18.2389 216.898 18.3133 217.121 18.4126C217.368 18.4871 217.579 18.5739 217.752 18.6732C217.95 18.7725 218.086 18.8594 218.161 18.9338C218.111 20.001 217.851 21.0931 217.381 22.2099C216.935 23.3268 216.39 24.4064 215.747 25.4488C215.103 26.4912 214.422 27.4716 213.704 28.3899C212.986 29.3082 212.33 30.1024 211.736 30.7725C210.548 32.1624 209.347 33.4033 208.134 34.4953C206.946 35.5874 205.522 36.6422 203.864 37.6598C203.22 37.4116 202.712 37.0765 202.341 36.6546C201.97 36.2575 201.784 35.8356 201.784 35.3888C201.784 35.091 201.846 34.7559 201.97 34.3837C202.118 33.9866 202.279 33.4902 202.452 32.8945C202.626 32.274 202.774 31.5047 202.898 30.5863C203.047 29.668 203.121 28.5015 203.121 27.0869C203.121 26.2678 203.096 25.4488 203.047 24.6298C203.022 23.7859 203.009 23.1406 203.009 22.6939Z" fill="white"/>
<path d="M230.907 20.4602C230.808 21.999 230.536 23.3268 230.09 24.4436C229.644 25.5357 229.001 26.5036 228.159 27.3475C227.342 28.1665 226.339 28.9111 225.151 29.5812C223.963 30.2513 222.576 30.8966 220.992 31.5171C220.992 31.666 220.979 31.8273 220.955 32.001C220.955 32.1499 220.955 32.3113 220.955 32.485C220.955 32.8077 220.979 33.1427 221.029 33.4902C221.078 33.8376 221.165 34.1603 221.289 34.4581C221.413 34.7559 221.586 35.0041 221.809 35.2027C222.032 35.3764 222.316 35.4633 222.663 35.4633C223.331 35.4633 223.987 35.3144 224.631 35.0165C225.275 34.7187 225.881 34.3588 226.451 33.9369C227.045 33.4902 227.589 33.0186 228.085 32.5222C228.604 32.001 229.062 31.5295 229.459 31.1075C229.706 31.3309 229.917 31.5419 230.09 31.7404C228.976 33.2296 227.75 34.4705 226.414 35.4633C225.101 36.4312 223.851 37.0517 222.663 37.3247C220.955 37.1262 219.618 36.5057 218.652 35.4633C217.712 34.3961 217.241 33.1179 217.241 31.6287C217.241 30.6112 217.377 29.5812 217.65 28.5388C217.947 27.4716 218.343 26.454 218.838 25.486C219.358 24.4933 219.952 23.5626 220.62 22.6939C221.314 21.8252 222.044 21.0683 222.811 20.423C223.604 19.7777 224.408 19.2689 225.225 18.8966C226.067 18.5243 226.896 18.3382 227.713 18.3382C228.852 18.4871 229.917 19.1944 230.907 20.4602ZM228.345 21.6887C227.676 21.788 226.983 22.061 226.265 22.5078C225.547 22.9545 224.866 23.5502 224.223 24.2947C223.604 25.0393 223.034 25.908 222.514 26.9007C221.994 27.8935 221.586 28.9607 221.289 30.1024C223.269 29.1096 224.916 27.8935 226.228 26.454C227.54 24.9897 228.246 23.4012 228.345 21.6887Z" fill="white"/>
<path d="M232.589 33.4902C232.589 32.3981 232.849 30.8718 233.369 28.9111C233.889 26.9255 234.619 24.6174 235.56 21.9866C237.095 17.7921 238.531 14.3051 239.867 11.5253C241.229 8.72079 242.554 6.53671 243.841 4.97311C244.138 5.02275 244.497 5.14684 244.918 5.3454C245.363 5.54395 245.797 5.76732 246.218 6.01551C246.638 6.23888 247.01 6.47466 247.332 6.72285C247.678 6.97104 247.901 7.1696 248 7.31851C246.069 9.60186 244.373 12.0589 242.912 14.6898C241.452 17.3206 240.115 20.3361 238.902 23.7363C237.862 26.6649 237.07 29.3082 236.525 31.666C235.981 33.999 235.708 35.9473 235.708 37.5109C235.708 37.9328 235.708 38.1934 235.708 38.2927C235.708 38.3919 235.721 38.4912 235.745 38.5905C235.399 38.5408 235.102 38.454 234.854 38.3299C234.607 38.2058 234.446 38.0569 234.371 37.8831C234.322 37.759 234.186 37.5729 233.963 37.3247C233.74 37.1013 233.542 36.9276 233.369 36.8035C233.146 36.6546 232.96 36.2699 232.812 35.6494C232.663 35.0041 232.589 34.2844 232.589 33.4902Z" fill="white"/>
<path d="M36 25L37 28L32.1401 28.7784L26.5248 25.6023L36 25Z" fill="white"/>
<path d="M34.8 19.3977L35.5 23.608L24.3822 24.0511L15.8115 17.9205L34.8 19.3977Z" fill="white"/>
<path d="M13.2255 16L36.3516 17.6989C36.8688 24.0511 37.3929 28.1769 42.1147 33.5795C48.6166 40.5966 58 42 58 42C40.3266 36.4455 39.11 19.7424 40.7108 12.0852L0 3L13.2255 16Z" fill="white"/>
<path d="M48 21.5L49 24.5L44.586 25.1174L42 23.5L41.5 22L48 21.5Z" fill="white"/>
<path d="M47.5 16V20L41.5 20.5V15.5L47.5 16Z" fill="white"/>
<path d="M13 0L20 6L42.5 11L42 14L48.7248 14.5379C49.2331 20.7273 49.7482 24.5313 54.3885 29.7955C60.7783 36.6326 70 38 70 38C52.6313 32.5879 51.4357 16.3131 53.0089 8.85227L13 0Z" fill="white"/>
</svg>
